<svg width="2048" height="2048" viewBox="0 0 2048 2048" fill="none"
  xmlns="http://www.w3.org/2000/svg" xmlns:xlink="http://www.w3.org/1999/xlink">
  <g clip-path="url(#clip0_1_2)">
    <rect y="2048" width="2048" height="2048" transform="rotate(-90 0 2048)"
      fill="url(#paint0_radial_1_2)" />
    <circle cx="664.5" cy="506.5" r="857.5" stroke="#B3D234" stroke-width="40" />
    <mask id="mask0_1_2" style="mask-type:alpha" maskUnits="userSpaceOnUse" x="-173" y="-331"
      width="1675" height="1675">
      <circle cx="664.5" cy="506.5" r="837.5" fill="white" />
    </mask>
    <g mask="url(#mask0_1_2)">
      <rect x="-1" y="-159" width="1503" height="1503" fill="url(#pattern0)" />
    </g>
    <text fill="#B3D234" xml:space="preserve" style="white-space: pre" font-family="Poppins"
      font-size="230" font-weight="bold" letter-spacing="0em"><tspan x="113" y="1931">[[COGNOME]]</tspan></text>
    <text fill="white" xml:space="preserve" style="white-space: pre" font-family="Poppins"
      font-size="230" letter-spacing="0em"><tspan x="113" y="1678">[[NOME]]&#10;</tspan></text>
    <path
      d="M1889 1180C1889 1393.74 1715.73 1567 1502 1567C1288.26 1567 1115 1393.74 1115 1180C1115 966.264 1288.26 793 1502 793C1715.73 793 1889 966.264 1889 1180Z"
      fill="#8DC63F" stroke="white" stroke-width="20" />
    <path
      d="M1541.63 1044.93C1582.44 1033.11 1626.33 1018.57 1653.29 984.437C1664.55 968.998 1675.64 950.195 1672.51 930.504C1668.4 906.607 1644.59 889.701 1621.11 885.879C1596.29 881.571 1570.88 893.964 1554.42 912.105L1546.57 921.108C1541.16 890.554 1525.08 861.156 1493.23 852.939C1452.63 843.532 1427.55 864.479 1426.81 905.42C1424.96 929.5 1432.87 953.245 1444.31 974.193C1454.96 993.325 1468.28 1010.48 1483.37 1026.71C1484.32 1027.6 1482.99 1029.23 1481.92 1028.48C1443.12 1003.83 1409.8 963.961 1404.57 916.974C1402.12 891.876 1405.47 863.531 1425.06 845.179C1448.04 823.578 1484.11 823.695 1511.07 836.965C1529.96 846.111 1544.29 863.615 1550.93 883.201C1553.6 890.995 1555.45 898.415 1556.23 906.762L1545.42 903.094C1563.83 887.927 1586.55 878.31 1610.44 878.099C1634.16 878.722 1657.85 887.678 1674.77 904.777C1701.23 932.219 1691.47 970.328 1669.19 997.069C1648.67 1022.21 1618.25 1036.38 1587.47 1042.77C1572.41 1046.05 1557.11 1047.43 1541.92 1047.19C1540.58 1047.13 1540.38 1045.3 1541.63 1044.93Z"
      fill="#15457D" />
    <path
      d="M1211.78 1208.15L1169.18 1083.79H1202.27L1228.89 1171.64H1229.27L1255.89 1083.79H1288.22L1245.62 1208.15H1211.78Z"
      fill="#15457D" />
    <path
      d="M1303.63 1114.22H1332.15V1208.15H1303.63V1114.22ZM1299.64 1087.41C1299.64 1077.14 1307.62 1069.15 1317.89 1069.15C1328.16 1069.15 1336.15 1077.14 1336.15 1087.41C1336.15 1097.68 1328.16 1105.66 1317.89 1105.66C1307.62 1105.66 1299.64 1097.68 1299.64 1087.41Z"
      fill="#15457D" />
    <path
      d="M1380.84 1208.15L1347.18 1114.22H1377.8L1398.33 1180.39H1398.71L1419.25 1114.22H1449.1L1415.44 1208.15H1380.84Z"
      fill="#15457D" />
    <path
      d="M1460.14 1087.41C1460.14 1077.14 1468.13 1069.15 1478.39 1069.15C1488.66 1069.15 1496.65 1077.14 1496.65 1087.41C1496.65 1097.67 1488.66 1105.66 1478.39 1105.66C1468.13 1105.66 1460.14 1097.67 1460.14 1087.41Z"
      fill="#15457D" />
    <path d="M1464.13 1114.22H1492.66V1208.15H1464.13V1114.22Z" fill="#15457D" />
    <path
      d="M1592.24 1126.26C1561.56 1126.26 1524.8 1170.37 1524.8 1189.64C1524.8 1194.71 1526.83 1196.49 1529.11 1196.49C1535.96 1196.49 1552.94 1181.02 1569.68 1159.73C1577.79 1149.33 1578.81 1146.54 1580.32 1146.54C1583.37 1146.54 1588.44 1152.63 1588.44 1156.43C1588.44 1161.76 1576.02 1173.42 1576.02 1184.32C1576.02 1190.66 1579.06 1192.69 1582.86 1192.69C1597.57 1192.69 1614.8 1170.88 1621.14 1162.51C1622.92 1160.23 1623.43 1159.98 1624.19 1159.98C1624.95 1159.98 1625.45 1160.49 1625.45 1161.24C1625.45 1162.26 1625.2 1163.02 1623.93 1165.05C1616.07 1177.47 1596.81 1200.04 1578.81 1200.04C1569.43 1200.04 1562.83 1193.45 1562.83 1184.32C1562.83 1180.52 1563.34 1177.73 1564.86 1173.92C1551.42 1189.9 1533.93 1206.38 1520.49 1206.38C1513.9 1206.38 1506.29 1201.81 1506.29 1189.9C1506.29 1159.98 1551.42 1118.4 1584.89 1118.4C1592.5 1118.4 1596.81 1120.94 1599.34 1124.49C1600.86 1126.51 1599.6 1128.29 1597.31 1127.27C1596.05 1126.77 1594.27 1126.26 1592.24 1126.26Z"
      fill="#15457D" />
    <path
      d="M1735.49 1177.22C1735.49 1184.57 1739.04 1187.36 1744.11 1187.36C1756.03 1187.36 1769.97 1170.62 1774.79 1163.78C1776.31 1161.5 1777.07 1161.25 1777.83 1161.25C1778.59 1161.25 1779.35 1161.76 1779.35 1162.77C1779.35 1163.78 1778.34 1165.05 1777.58 1166.32C1770.99 1176.71 1753.75 1195.47 1738.03 1195.47C1727.89 1195.47 1720.03 1188.63 1720.03 1178.74C1720.03 1160.99 1730.93 1148.57 1730.93 1144.01C1730.93 1142.99 1730.42 1142.48 1729.92 1142.48C1725.6 1142.48 1697.72 1171.9 1688.85 1187.36C1685.8 1192.18 1684.53 1197 1681.24 1197C1678.45 1197 1670.59 1193.45 1670.59 1182.79C1670.59 1165.81 1692.14 1131.84 1692.14 1122.46C1692.14 1120.68 1691.38 1119.92 1690.36 1119.92C1683.52 1119.92 1655.12 1152.12 1638.9 1176.2C1627.23 1193.19 1621.66 1208.41 1615.57 1208.41C1611.52 1208.41 1606.95 1202.83 1606.95 1197C1606.95 1185.33 1628.76 1154.15 1629.52 1134.88C1629.52 1132.85 1630.02 1132.09 1631.8 1132.09C1635.6 1132.09 1643.46 1137.41 1643.46 1144.51C1643.46 1149.58 1639.66 1159.73 1636.62 1166.82C1664.25 1132.09 1683.52 1110.29 1696.96 1110.29C1703.29 1110.29 1709.63 1115.36 1709.63 1122.46C1709.63 1136.15 1685.3 1165.3 1684.79 1181.28C1693.15 1168.85 1724.34 1131.84 1739.3 1131.84C1744.37 1131.84 1747.66 1135.89 1747.66 1140.2C1747.66 1150.09 1735.49 1160.23 1735.49 1177.22Z"
      fill="#15457D" />
    <path
      d="M1852.63 1130.82C1852.63 1160.99 1816.38 1205.36 1791.28 1205.36C1780.12 1205.36 1769.48 1196.74 1769.48 1182.29C1769.48 1160.49 1794.58 1137.16 1816.38 1131.58C1819.17 1130.82 1821.96 1130.57 1822.97 1130.57C1825.25 1130.57 1826.01 1131.84 1826.01 1133.1C1826.01 1134.63 1824.74 1135.39 1821.7 1137.16C1804.21 1146.54 1787.48 1170.12 1787.48 1186.85C1787.48 1193.95 1790.26 1197.76 1795.84 1197.76C1812.83 1197.76 1838.94 1160.74 1838.94 1133.1C1838.94 1122.46 1834.89 1119.16 1829.56 1119.16C1824.24 1119.16 1820.18 1122.2 1817.39 1124.99C1816.89 1124.99 1816.12 1124.23 1816.12 1122.96C1816.12 1118.65 1824.49 1110.79 1835.4 1110.79C1845.79 1110.79 1852.63 1117.89 1852.63 1130.82Z"
      fill="#15457D" />
    <path
      d="M1357.21 1254.38C1357.03 1247.46 1352.66 1242.01 1342.47 1242.01C1331.92 1242.01 1327.73 1248.01 1327.73 1254.2C1327.73 1274.22 1386.7 1254.2 1386.7 1301.88C1386.7 1325.54 1368.86 1340.46 1341.93 1340.46C1315.36 1340.46 1297.7 1326.08 1297.16 1302.97H1325.91C1325.91 1310.43 1330.46 1315.16 1341.93 1315.16C1353.39 1315.16 1357.94 1310.43 1357.94 1302.97C1357.94 1282.95 1299.34 1302.97 1299.34 1255.29C1299.34 1232.72 1316.45 1216.71 1342.11 1216.71C1367.04 1216.71 1383.97 1231.81 1384.88 1254.38H1357.21Z"
      fill="#15457D" />
    <path
      d="M1466.96 1292.78C1466.96 1279.86 1458.59 1270.94 1446.21 1270.94C1433.84 1270.94 1425.47 1279.86 1425.47 1292.78C1425.47 1305.7 1433.84 1314.62 1446.21 1314.62C1458.59 1314.62 1466.96 1305.7 1466.96 1292.78ZM1446.21 1340.1C1417.83 1340.1 1397.81 1320.08 1397.81 1292.78C1397.81 1265.48 1417.83 1245.46 1446.21 1245.46C1474.6 1245.46 1494.62 1265.48 1494.62 1292.78C1494.62 1320.08 1474.6 1340.1 1446.21 1340.1Z"
      fill="#15457D" />
    <path
      d="M1570.34 1337.73V1291.14C1570.34 1276.95 1563.43 1270.94 1553.23 1270.94C1543.04 1270.94 1536.13 1276.95 1536.13 1291.14V1337.73H1508.83V1291.14C1508.83 1260.93 1526.66 1245.46 1553.23 1245.46C1579.81 1245.46 1597.64 1260.75 1597.64 1291.14V1337.73H1570.34Z"
      fill="#15457D" />
    <path
      d="M1681 1292.78C1681 1279.86 1672.63 1270.94 1660.25 1270.94C1647.88 1270.94 1639.51 1279.86 1639.51 1292.78C1639.51 1305.7 1647.88 1314.62 1660.25 1314.62C1672.63 1314.62 1681 1305.7 1681 1292.78ZM1708.3 1337.73H1683.19V1323.72H1682.82C1678.45 1333.54 1668.26 1340.1 1654.98 1340.1C1635.87 1340.1 1611.85 1326.09 1611.85 1292.78C1611.85 1265.48 1631.87 1245.46 1660.25 1245.46C1688.64 1245.46 1708.3 1264.21 1708.3 1293.69V1337.73Z"
      fill="#15457D" />
    <path
      d="M1218.88 1364.41C1224.1 1372.27 1231.06 1373.15 1237.72 1368.73C1244.39 1364.3 1246.27 1357.54 1241.05 1349.69L1236.48 1342.81L1214.32 1357.53L1218.88 1364.41ZM1209.49 1356.33L1237.25 1337.89L1243.85 1347.83C1250.22 1357.42 1248.07 1366.26 1239.75 1371.78C1231.43 1377.31 1222.46 1375.87 1216.08 1366.27L1209.49 1356.33Z"
      fill="#15457D" />
    <path
      d="M1261.16 1393.01C1266.33 1388.7 1267.19 1383.2 1262.62 1377.73C1258.11 1372.33 1252.52 1372.15 1247.36 1376.45L1243.4 1379.75L1257.21 1396.3L1261.16 1393.01ZM1246.02 1405.64L1254.63 1398.46L1240.82 1381.91L1232.21 1389.09L1229.93 1386.35L1245.07 1373.72C1251.8 1368.1 1259.29 1368.49 1265.23 1375.61C1271.21 1382.77 1270.24 1390.21 1263.52 1395.82L1248.37 1408.46L1246.02 1405.64Z"
      fill="#15457D" />
    <path
      d="M1254.07 1414.41L1277.43 1390.64L1280.04 1393.21L1259.05 1414.58L1273.44 1428.72L1271.08 1431.12L1254.07 1414.41Z"
      fill="#15457D" />
    <path
      d="M1276.11 1435.51L1297.22 1409.72L1300.06 1412.04L1281.08 1435.23L1296.69 1448.01L1294.56 1450.62L1276.11 1435.51Z"
      fill="#15457D" />
    <path
      d="M1331.28 1451.86C1335.01 1446.27 1334.28 1440.76 1328.34 1436.8C1322.5 1432.9 1317.08 1434.31 1313.35 1439.91L1310.5 1444.19L1328.43 1456.14L1331.28 1451.86ZM1320.34 1468.26L1326.56 1458.94L1308.63 1446.98L1302.41 1456.31L1299.45 1454.33L1310.39 1437.93C1315.25 1430.64 1322.54 1428.89 1330.25 1434.03C1338.01 1439.2 1339.19 1446.61 1334.33 1453.9L1323.4 1470.3L1320.34 1468.26Z"
      fill="#15457D" />
    <path
      d="M1353.18 1486.13L1355.48 1450.35L1359.16 1452.1L1356.85 1483.02L1356.95 1483.07L1379.42 1461.7L1383.01 1463.4L1356.73 1487.81L1353.18 1486.13Z"
      fill="#15457D" />
    <path
      d="M1403.71 1485.23C1405.96 1478.89 1403.89 1473.73 1397.17 1471.34C1390.55 1469 1385.65 1471.69 1383.4 1478.03L1381.68 1482.88L1401.99 1490.08L1403.71 1485.23ZM1397.13 1503.81L1400.87 1493.25L1380.56 1486.05L1376.82 1496.61L1373.45 1495.42L1380.04 1476.84C1382.97 1468.58 1389.6 1465.09 1398.35 1468.19C1407.13 1471.31 1410.09 1478.19 1407.17 1486.45L1400.58 1505.04L1397.13 1503.81Z"
      fill="#15457D" />
    <path
      d="M1408.54 1507.26L1416.53 1474.9L1420.09 1475.78L1412.92 1504.87L1432.51 1509.71L1431.71 1512.97L1408.54 1507.26Z"
      fill="#15457D" />
    <path
      d="M1438.32 1514.22L1443.27 1481.26L1467.46 1484.89L1466.96 1488.22L1446.4 1485.13L1444.71 1496.37L1462.35 1499.02L1461.85 1502.35L1444.21 1499.7L1442.45 1511.44L1463.01 1514.53L1462.51 1517.85L1438.32 1514.22Z"
      fill="#15457D" />
    <path
      d="M1493.97 1519.79L1494.94 1499.58C1495.25 1493.17 1491.88 1489.02 1485.16 1488.7C1478.38 1488.37 1474.63 1492.17 1474.32 1498.59L1473.35 1518.8L1469.68 1518.62L1470.65 1498.41C1471.06 1490.01 1476.31 1484.9 1485.32 1485.34C1494.28 1485.77 1499.01 1491.36 1498.6 1499.76L1497.63 1519.97L1493.97 1519.79Z"
      fill="#15457D" />
    <path
      d="M1513.92 1519.43L1512.55 1489.49L1501.25 1490.01L1501.1 1486.65L1527.37 1485.45L1527.52 1488.81L1516.22 1489.32L1517.59 1519.26L1513.92 1519.43Z"
      fill="#15457D" />
    <path d="M1535.13 1517.89L1531.52 1484.77L1535.16 1484.38L1538.78 1517.49L1535.13 1517.89Z"
      fill="#15457D" />
    <path
      d="M1570.33 1512.53L1566.76 1492.63C1565.63 1486.31 1561.42 1483.03 1554.8 1484.21C1548.13 1485.41 1545.32 1489.95 1546.46 1496.27L1550.03 1516.17L1546.41 1516.82L1542.84 1496.91C1541.36 1488.64 1545.33 1482.49 1554.2 1480.9C1563.03 1479.32 1568.89 1483.7 1570.37 1491.98L1573.94 1511.88L1570.33 1512.53Z"
      fill="#15457D" />
    <path
      d="M1599.96 1484.24C1598.08 1477.78 1593.39 1474.79 1586.54 1476.78C1579.79 1478.74 1577.38 1483.79 1579.26 1490.25L1580.69 1495.19L1601.39 1489.18L1599.96 1484.24ZM1605.46 1503.18L1602.33 1492.41L1581.63 1498.42L1584.76 1509.19L1581.33 1510.18L1575.83 1491.24C1573.39 1482.83 1576.75 1476.12 1585.65 1473.53C1594.61 1470.93 1601.04 1474.8 1603.48 1483.21L1608.98 1502.15L1605.46 1503.18Z"
      fill="#15457D" />
    <path
      d="M1637.09 1464.37C1635.34 1460.97 1631.69 1459.92 1627.32 1461.88C1622.9 1463.86 1621.15 1467.43 1622.75 1471.02C1626.59 1479.57 1641.61 1464.24 1646.99 1476.24C1649.52 1481.91 1646.76 1487.45 1640.06 1490.45C1633.46 1493.41 1627.53 1491.88 1624.85 1486.27L1628.15 1484.79C1630.01 1488.59 1633.85 1489.55 1638.69 1487.38C1643.52 1485.22 1645.44 1481.51 1643.77 1477.79C1639.88 1469.1 1624.92 1484.56 1619.55 1472.57C1617.13 1467.17 1619.67 1461.62 1625.94 1458.81C1632.08 1456.06 1637.73 1457.72 1640.3 1462.94L1637.09 1464.37Z"
      fill="#15457D" />
    <path d="M1656.79 1481.6L1641.33 1452.06L1644.58 1450.36L1660.04 1479.89L1656.79 1481.6Z"
      fill="#15457D" />
    <path
      d="M1687.63 1463.73L1677.03 1446.5C1673.67 1441.04 1668.55 1439.52 1662.82 1443.04C1657.05 1446.59 1656.09 1451.84 1659.45 1457.31L1670.05 1474.54L1666.93 1476.46L1656.33 1459.23C1651.93 1452.07 1653.37 1444.9 1661.06 1440.18C1668.69 1435.48 1675.75 1437.42 1680.15 1444.58L1690.75 1461.81L1687.63 1463.73Z"
      fill="#15457D" />
    <path
      d="M1705.05 1447.07C1712.51 1441.29 1712.89 1434.3 1707.99 1427.97C1703.09 1421.64 1696.22 1420.26 1688.77 1426.03L1682.24 1431.08L1698.53 1452.12L1705.05 1447.07ZM1697.69 1457.02L1677.28 1430.67L1686.71 1423.37C1695.81 1416.32 1704.78 1417.82 1710.89 1425.72C1717 1433.62 1716.22 1442.67 1707.11 1449.72L1697.69 1457.02Z"
      fill="#15457D" />
    <path
      d="M1730.51 1402.83C1725.84 1397.99 1720.3 1397.53 1715.17 1402.49C1710.11 1407.37 1710.33 1412.96 1715 1417.8L1718.57 1421.5L1734.08 1406.54L1730.51 1402.83ZM1744.2 1417.02L1736.42 1408.96L1720.91 1423.92L1728.69 1431.99L1726.12 1434.47L1712.43 1420.27C1706.35 1413.96 1706.2 1406.47 1712.87 1400.03C1719.58 1393.55 1727.07 1393.98 1733.15 1400.28L1746.85 1414.48L1744.2 1417.02Z"
      fill="#15457D" />
    <path
      d="M1754.12 1371.66C1748.92 1369.96 1743.25 1371.56 1739.31 1376.35C1734.03 1382.77 1734.93 1390.97 1741.15 1396.08C1747.36 1401.19 1755.59 1400.51 1760.86 1394.09C1764.81 1389.29 1765.28 1383.42 1762.62 1378.65L1765.08 1375.66C1769.18 1381.81 1768.76 1389.78 1763.46 1396.23C1756.85 1404.25 1746.53 1405.26 1738.82 1398.91C1731.11 1392.57 1730.11 1382.24 1736.71 1374.22C1742.02 1367.77 1749.75 1365.82 1756.58 1368.67L1754.12 1371.66Z"
      fill="#15457D" />
    <path
      d="M1780.47 1341.92C1773.69 1337.59 1765.61 1339.26 1761.14 1346.26C1756.67 1353.26 1758.56 1361.29 1765.34 1365.63C1772.13 1369.96 1780.21 1368.28 1784.67 1361.28C1789.14 1354.28 1787.26 1346.25 1780.47 1341.92ZM1787.51 1363.09C1781.92 1371.85 1771.79 1374.09 1763.37 1368.72C1754.95 1363.35 1752.71 1353.21 1758.3 1344.45C1763.89 1335.69 1774.03 1333.45 1782.45 1338.82C1790.86 1344.19 1793.1 1354.33 1787.51 1363.09Z"
      fill="#15457D" />
  </g>
  <defs>
    <pattern id="pattern0" patternContentUnits="objectBoundingBox" width="1" height="1">
      <use xlink:href="#profile_image" transform="scale(0.00125)" />
    </pattern>
    <radialGradient id="paint0_radial_1_2" cx="0" cy="0" r="1" gradientUnits="userSpaceOnUse"
      gradientTransform="translate(1490.5 2740) rotate(135.548) scale(1220.17 1220.17)">
      <stop offset="0.401042" stop-color="#006896" />
      <stop offset="1" stop-color="#1C3783" />
    </radialGradient>
    <clipPath id="clip0_1_2">
      <rect width="2048" height="2048" fill="white" />
    </clipPath>
    <image id="profile_image" width="800" height="800" xlink:href="[[FOTO_PROFILO]]" />
  </defs>
</svg>