<svg width="2048" height="2048" viewBox="0 0 2048 2048" fill="none"
  xmlns="http://www.w3.org/2000/svg" xmlns:xlink="http://www.w3.org/1999/xlink">
  <g clip-path="url(#clip0_4_621)">
    <rect y="2048" width="2048" height="2048" transform="rotate(-90 0 2048)"
      fill="url(#paint0_radial_4_621)" />
    <circle cx="664.5" cy="506.5" r="857.5" stroke="#B3D234" stroke-width="40" />
    <mask id="mask0_4_621" style="mask-type:alpha" maskUnits="userSpaceOnUse" x="-173" y="-331"
      width="1675" height="1675">
      <circle cx="664.5" cy="506.5" r="837.5" fill="white" />
    </mask>
    <g mask="url(#mask0_4_621)">
      <rect x="-1" y="-159" width="1503" height="1503" fill="url(#pattern0)" />
    </g>
    <text fill="#B3D234" xml:space="preserve" style="white-space: pre" font-family="Poppins"
      font-size="230" font-weight="bold" letter-spacing="0em"><tspan x="113" y="1931">[[COGNOME]]</tspan></text>
    <text fill="white" xml:space="preserve" style="white-space: pre" font-family="Poppins"
      font-size="230" letter-spacing="0em"><tspan x="113" y="1678">[[NOME]]&#10;</tspan></text>
    <path
      d="M1889 1180C1889 1393.74 1715.73 1567 1502 1567C1288.27 1567 1115 1393.74 1115 1180C1115 966.266 1288.27 793 1502 793C1715.73 793 1889 966.266 1889 1180Z"
      fill="#15457D" stroke="white" stroke-width="20" />
    <path
      d="M1490.83 1426.42L1490.69 1347.7C1494.87 1346.67 1500.35 1346.57 1507.45 1348.43C1509.67 1349.01 1511.81 1349.83 1513.87 1350.84C1517.75 1352.73 1522.04 1353.78 1526.56 1353.77C1543.84 1353.74 1557.82 1338.29 1557.79 1319.25C1557.76 1300.22 1543.72 1284.81 1526.45 1284.84C1521.35 1284.85 1516.55 1286.2 1512.3 1288.58C1508.06 1290.97 1503.57 1292.92 1498.82 1293.93C1495.76 1294.59 1493.04 1294.86 1490.6 1294.84L1490.41 1181.61L1416.77 1181.73C1417.29 1182.86 1417.89 1184.02 1418.56 1185.22C1422.03 1191.39 1423.87 1198.34 1423.88 1205.34C1423.92 1229.34 1403 1248.9 1377.24 1248.94C1351.49 1248.99 1330.51 1229.5 1330.47 1205.5C1330.46 1199.35 1331.8 1193.4 1334.45 1187.81C1335.3 1186.04 1335.81 1184.76 1336.11 1183.65C1336.27 1183.05 1336.42 1182.45 1336.55 1181.87L1256.29 1182.01C1256.84 1313.49 1360.66 1420.6 1490.83 1426.42Z"
      fill="#FFF200" />
    <path
      d="M1747.72 1181.17L1668.74 1181.31C1667.69 1177.03 1667.61 1171.4 1669.61 1164.05C1670.19 1161.91 1671.06 1159.86 1672.01 1157.85C1673.82 1154.05 1674.83 1149.85 1674.82 1145.44C1674.79 1128.16 1659.33 1114.18 1640.3 1114.21C1621.26 1114.25 1605.85 1128.28 1605.89 1145.56C1605.89 1150.65 1607.24 1155.45 1609.63 1159.7C1612.01 1163.94 1613.96 1168.43 1614.98 1173.18C1615.63 1176.24 1615.9 1178.96 1615.89 1181.4L1502.65 1181.59L1502.82 1279.71C1503.94 1279.19 1505.1 1278.59 1506.3 1277.92C1512.47 1274.45 1519.42 1272.61 1526.42 1272.6C1550.42 1272.56 1569.98 1293.48 1570.03 1319.24C1570.07 1344.99 1550.58 1365.97 1526.58 1366.01C1520.44 1366.02 1514.49 1364.68 1508.89 1362.03C1507.12 1361.18 1505.84 1360.67 1504.74 1360.37C1504.13 1360.21 1503.54 1360.06 1502.95 1359.93L1503.07 1426.67C1638.21 1426.1 1747.6 1316.42 1747.72 1181.17Z"
      fill="#8AC75F" />
    <path
      d="M1401.64 1169.52C1401.62 1172.33 1401.99 1175.55 1402.88 1179.2C1403.94 1183.5 1405.84 1187.51 1407.99 1191.38C1410.31 1195.58 1411.63 1200.33 1411.64 1205.36C1411.67 1222.64 1396.26 1236.67 1377.23 1236.7C1358.19 1236.74 1342.74 1222.75 1342.71 1205.48C1342.7 1200.96 1343.75 1196.67 1345.64 1192.79C1346.65 1190.73 1347.47 1188.58 1348.05 1186.37C1349.91 1179.26 1349.81 1173.79 1348.78 1169.61L1256.53 1169.77C1262.2 1043.24 1363.57 941.61 1490 935.529L1490.09 991.025C1489.51 990.895 1488.91 990.746 1488.3 990.583C1487.2 990.282 1485.92 989.773 1484.15 988.932C1478.56 986.275 1472.61 984.933 1466.46 984.942C1442.46 984.984 1422.97 1005.97 1423.02 1031.72C1423.06 1057.48 1442.62 1078.4 1466.62 1078.36C1473.62 1078.34 1480.58 1076.51 1486.74 1073.04C1487.94 1072.36 1489.1 1071.77 1490.23 1071.25L1490.39 1169.37L1401.64 1169.52Z"
      fill="#FAA619" />
    <path
      d="M1502.63 1169.35L1502.44 1056.11C1500.01 1056.1 1497.28 1056.37 1494.22 1057.02C1489.47 1058.04 1484.98 1059.99 1480.74 1062.37C1476.5 1064.76 1471.69 1066.11 1466.6 1066.12C1449.32 1066.15 1435.29 1050.74 1435.26 1031.7C1435.22 1012.67 1449.2 997.212 1466.48 997.184C1471 997.175 1475.29 998.227 1479.17 1000.12C1481.23 1001.12 1483.37 1001.94 1485.59 1002.53C1492.69 1004.39 1498.17 1004.28 1502.35 1003.26L1502.23 935.241C1633.8 935.365 1741.16 1038.89 1747.43 1168.93L1680.98 1169.05C1681.11 1168.46 1681.25 1167.87 1681.42 1167.26C1681.72 1166.16 1682.23 1164.88 1683.07 1163.11C1685.73 1157.52 1687.07 1151.56 1687.06 1145.42C1687.02 1121.42 1666.03 1101.93 1640.28 1101.97C1614.52 1102.02 1593.6 1121.58 1593.65 1145.58C1593.66 1152.57 1595.49 1159.53 1598.96 1165.7C1599.63 1166.9 1600.23 1168.06 1600.75 1169.18L1502.63 1169.35Z"
      fill="#C43B85" />
    <path
      d="M1301.8 1098.69C1304.94 1100.92 1308.88 1101.91 1311.46 1101.91C1314.55 1101.91 1316.78 1100.58 1316.78 1097.71C1316.78 1094.27 1313.52 1093.8 1309.48 1092.6C1305.15 1091.27 1301.07 1089.29 1301.07 1083.75C1301.07 1078.13 1305.28 1074.74 1311.54 1074.74C1314.55 1074.74 1318.16 1075.47 1320.77 1077.01V1082.51C1317.68 1080.49 1314.03 1079.59 1311.5 1079.59C1308.58 1079.59 1306.52 1080.75 1306.52 1083.37C1306.52 1086.67 1309.78 1087.1 1313.52 1088.26C1318.11 1089.68 1322.23 1091.7 1322.23 1097.41C1322.23 1103.24 1317.86 1106.77 1311.42 1106.77C1308.37 1106.77 1304.63 1105.95 1301.8 1104.4V1098.69Z"
      fill="#15457D" />
    <path
      d="M1336.82 1102.21C1340.42 1102.21 1343.09 1099.38 1343.09 1095.73C1343.09 1092.08 1340.42 1089.25 1336.82 1089.25C1333.21 1089.25 1330.55 1092.08 1330.55 1095.73C1330.55 1099.38 1333.21 1102.21 1336.82 1102.21ZM1336.82 1084.7C1343.39 1084.7 1348.28 1089.51 1348.28 1095.73C1348.28 1101.96 1343.39 1106.76 1336.82 1106.76C1330.25 1106.76 1325.36 1101.96 1325.36 1095.73C1325.36 1089.51 1330.25 1084.7 1336.82 1084.7Z"
      fill="#15457D" />
    <path
      d="M1352.99 1085.17H1358.14V1087.45L1358.23 1087.49C1359.99 1085.9 1362.39 1084.7 1365.18 1084.7C1367.46 1084.7 1369.43 1085.47 1370.76 1086.93C1372.01 1088.26 1372.57 1090.02 1372.57 1093.16V1106.29H1367.37V1094.06C1367.37 1092.17 1367.11 1091.14 1366.51 1090.45C1365.87 1089.68 1364.93 1089.29 1363.72 1089.29C1361.66 1089.29 1359.52 1090.49 1358.19 1091.96V1106.29H1352.99V1085.17Z"
      fill="#15457D" />
    <path
      d="M1389.81 1097.79C1388.87 1097.54 1387.58 1097.36 1386.55 1097.36C1384.41 1097.36 1382.3 1098.05 1382.3 1100.11C1382.3 1101.83 1383.8 1102.64 1385.65 1102.64C1387.24 1102.64 1388.78 1102.08 1389.81 1101.36V1097.79ZM1390.63 1104.75C1389.34 1105.78 1387.15 1106.77 1384.36 1106.77C1382.65 1106.77 1380.88 1106.38 1379.47 1105.35C1378.01 1104.27 1377.11 1102.6 1377.11 1100.5C1377.11 1098.18 1378.22 1096.46 1379.81 1095.39C1381.4 1094.32 1383.55 1093.93 1385.74 1093.93C1387.2 1093.93 1388.53 1094.1 1389.81 1094.4V1093.16C1389.81 1091.87 1389.47 1090.92 1388.78 1090.28C1388.01 1089.59 1386.81 1089.25 1385.22 1089.25C1382.69 1089.25 1380.5 1090.11 1378.87 1091.14V1086.42C1380.54 1085.47 1382.99 1084.7 1385.99 1084.7C1388.74 1084.7 1391.19 1085.34 1392.78 1086.67C1394.19 1087.88 1395.01 1089.68 1395.01 1092.3V1100.41C1395.01 1101.57 1395.44 1102.38 1396.47 1102.38C1396.85 1102.38 1397.28 1102.26 1397.63 1102.08V1106.16C1396.98 1106.46 1396.08 1106.68 1395.05 1106.68C1393.34 1106.68 1391.7 1106.08 1390.71 1104.75H1390.63Z"
      fill="#15457D" />
    <path d="M1463.15 1010.53H1468.6V1036.76H1482.73V1041.61H1463.15V1010.53Z" fill="white" />
    <path
      d="M1500.7 1039.25C1498.94 1040.88 1496.67 1042.09 1493.84 1042.09C1491.52 1042.09 1489.5 1041.27 1488.21 1039.85C1486.93 1038.44 1486.32 1036.5 1486.32 1033.46V1020.49H1491.52V1032.6C1491.52 1034.49 1491.82 1035.6 1492.46 1036.33C1493.23 1037.23 1494.27 1037.49 1495.25 1037.49C1497.31 1037.49 1499.33 1036.33 1500.75 1034.74V1020.49H1505.94V1041.61H1500.79V1039.29L1500.7 1039.25Z"
      fill="white" />
    <path
      d="M1526.37 1025.64C1525.25 1025 1523.62 1024.53 1522.03 1024.53C1518.25 1024.53 1516.06 1027.4 1516.06 1030.84C1516.06 1034.49 1518.42 1037.19 1522.03 1037.19C1523.57 1037.19 1525.25 1036.68 1526.37 1035.86V1025.64ZM1513.62 1044.83C1515.68 1046.16 1518.08 1046.98 1520.4 1046.98C1524 1046.98 1526.37 1044.96 1526.37 1041.4V1040.07L1526.28 1039.98C1524.91 1040.97 1522.89 1041.53 1520.91 1041.53C1515.46 1041.53 1510.82 1037.36 1510.82 1031.1C1510.82 1025 1515.07 1020.02 1521.77 1020.02C1523.87 1020.02 1525.64 1020.49 1527.09 1021.22L1531.56 1020.45V1041.36C1531.56 1047.75 1527.18 1051.53 1520.57 1051.53C1517.91 1051.53 1515.42 1050.89 1513.62 1049.99V1044.83Z"
      fill="white" />
    <path
      d="M1548.93 1033.11C1547.99 1032.86 1546.7 1032.69 1545.67 1032.69C1543.53 1032.69 1541.42 1033.37 1541.42 1035.43C1541.42 1037.15 1542.92 1037.96 1544.77 1037.96C1546.36 1037.96 1547.9 1037.41 1548.93 1036.68V1033.11ZM1549.75 1040.07C1548.46 1041.1 1546.27 1042.09 1543.48 1042.09C1541.77 1042.09 1540 1041.7 1538.59 1040.67C1537.13 1039.6 1536.23 1037.92 1536.23 1035.82C1536.23 1033.5 1537.34 1031.78 1538.93 1030.71C1540.52 1029.64 1542.67 1029.25 1544.86 1029.25C1546.32 1029.25 1547.65 1029.42 1548.93 1029.72V1028.48C1548.93 1027.19 1548.59 1026.25 1547.9 1025.6C1547.13 1024.92 1545.93 1024.57 1544.34 1024.57C1541.81 1024.57 1539.62 1025.43 1537.99 1026.46V1021.74C1539.66 1020.79 1542.11 1020.02 1545.11 1020.02C1547.86 1020.02 1550.31 1020.67 1551.9 1022C1553.31 1023.2 1554.13 1025 1554.13 1027.62V1035.73C1554.13 1036.89 1554.56 1037.71 1555.59 1037.71C1555.97 1037.71 1556.4 1037.58 1556.75 1037.41V1041.49C1556.1 1041.78 1555.2 1042 1554.17 1042C1552.46 1042 1550.82 1041.4 1549.83 1040.07H1549.75Z"
      fill="white" />
    <path
      d="M1574.85 1025.64C1573.74 1025 1572.11 1024.53 1570.52 1024.53C1566.74 1024.53 1564.55 1027.4 1564.55 1030.84C1564.55 1034.49 1566.91 1037.19 1570.52 1037.19C1572.06 1037.19 1573.74 1036.68 1574.85 1035.86V1025.64ZM1562.1 1044.83C1564.16 1046.16 1566.57 1046.98 1568.89 1046.98C1572.49 1046.98 1574.85 1044.96 1574.85 1041.4V1040.07L1574.77 1039.98C1573.39 1040.97 1571.37 1041.53 1569.4 1041.53C1563.95 1041.53 1559.31 1037.36 1559.31 1031.1C1559.31 1025 1563.56 1020.02 1570.26 1020.02C1572.36 1020.02 1574.12 1020.49 1575.58 1021.22L1580.05 1020.45V1041.36C1580.05 1047.75 1575.67 1051.53 1569.06 1051.53C1566.4 1051.53 1563.9 1050.89 1562.1 1049.99V1044.83Z"
      fill="white" />
    <path
      d="M1586.18 1020.49H1591.33V1022.77L1591.41 1022.81C1593.17 1021.22 1595.57 1020.02 1598.37 1020.02C1600.64 1020.02 1602.62 1020.79 1603.95 1022.25C1605.19 1023.58 1605.75 1025.34 1605.75 1028.48V1041.61H1600.56V1029.38C1600.56 1027.49 1600.3 1026.46 1599.7 1025.77C1599.05 1025 1598.11 1024.61 1596.9 1024.61C1594.85 1024.61 1592.7 1025.81 1591.37 1027.28V1041.61H1586.18V1020.49Z"
      fill="white" />
    <path
      d="M1623 1033.11C1622.05 1032.86 1620.77 1032.69 1619.74 1032.69C1617.59 1032.69 1615.49 1033.37 1615.49 1035.43C1615.49 1037.15 1616.99 1037.96 1618.83 1037.96C1620.42 1037.96 1621.97 1037.41 1623 1036.68V1033.11ZM1623.82 1040.07C1622.53 1041.1 1620.34 1042.09 1617.54 1042.09C1615.83 1042.09 1614.07 1041.7 1612.65 1040.67C1611.19 1039.6 1610.29 1037.92 1610.29 1035.82C1610.29 1033.5 1611.41 1031.78 1612.99 1030.71C1614.59 1029.64 1616.73 1029.25 1618.92 1029.25C1620.38 1029.25 1621.71 1029.42 1623 1029.72V1028.48C1623 1027.19 1622.65 1026.25 1621.97 1025.6C1621.19 1024.92 1619.99 1024.57 1618.4 1024.57C1615.87 1024.57 1613.68 1025.43 1612.05 1026.46V1021.74C1613.73 1020.79 1616.17 1020.02 1619.18 1020.02C1621.92 1020.02 1624.37 1020.67 1625.96 1022C1627.38 1023.2 1628.19 1025 1628.19 1027.62V1035.73C1628.19 1036.89 1628.62 1037.71 1629.65 1037.71C1630.04 1037.71 1630.47 1037.58 1630.81 1037.41V1041.49C1630.17 1041.78 1629.27 1042 1628.24 1042C1626.52 1042 1624.88 1041.4 1623.9 1040.07H1623.82Z"
      fill="white" />
    <path
      d="M1634.62 1020.49H1639.77V1022.77L1639.86 1022.81C1641.62 1021.22 1644.02 1020.02 1646.81 1020.02C1649.09 1020.02 1651.06 1020.79 1652.39 1022.25C1653.64 1023.58 1654.2 1025.34 1654.2 1028.48V1041.61H1649V1029.38C1649 1027.49 1648.74 1026.46 1648.14 1025.77C1647.5 1025 1646.55 1024.61 1645.35 1024.61C1643.29 1024.61 1641.15 1025.81 1639.82 1027.28V1041.61H1634.62V1020.49Z"
      fill="white" />
    <path
      d="M1670.28 1037.54C1673.89 1037.54 1676.55 1034.7 1676.55 1031.05C1676.55 1027.4 1673.89 1024.57 1670.28 1024.57C1666.68 1024.57 1664.02 1027.4 1664.02 1031.05C1664.02 1034.7 1666.68 1037.54 1670.28 1037.54ZM1670.28 1020.02C1676.85 1020.02 1681.75 1024.83 1681.75 1031.05C1681.75 1037.28 1676.85 1042.09 1670.28 1042.09C1663.72 1042.09 1658.82 1037.28 1658.82 1031.05C1658.82 1024.83 1663.72 1020.02 1670.28 1020.02Z"
      fill="white" />
    <path
      d="M1317.69 1321.63C1320.82 1323.86 1324.77 1324.85 1327.35 1324.85C1330.44 1324.85 1332.67 1323.52 1332.67 1320.64C1332.67 1317.21 1329.41 1316.73 1325.37 1315.53C1321.04 1314.2 1316.96 1312.23 1316.96 1306.69C1316.96 1301.07 1321.17 1297.68 1327.43 1297.68C1330.44 1297.68 1334.04 1298.41 1336.66 1299.95V1305.45C1333.57 1303.43 1329.92 1302.53 1327.39 1302.53C1324.47 1302.53 1322.41 1303.69 1322.41 1306.3C1322.41 1309.61 1325.67 1310.04 1329.41 1311.2C1334 1312.62 1338.12 1314.63 1338.12 1320.34C1338.12 1326.18 1333.74 1329.7 1327.31 1329.7C1324.26 1329.7 1320.52 1328.89 1317.69 1327.34V1321.63Z"
      fill="#15457D" />
    <path
      d="M1353.86 1320.73C1352.92 1320.47 1351.63 1320.3 1350.6 1320.3C1348.46 1320.3 1346.35 1320.99 1346.35 1323.05C1346.35 1324.76 1347.85 1325.58 1349.7 1325.58C1351.29 1325.58 1352.84 1325.02 1353.86 1324.29V1320.73ZM1354.68 1327.68C1353.39 1328.71 1351.2 1329.7 1348.41 1329.7C1346.7 1329.7 1344.94 1329.32 1343.52 1328.28C1342.06 1327.21 1341.16 1325.54 1341.16 1323.43C1341.16 1321.11 1342.27 1319.4 1343.86 1318.32C1345.45 1317.25 1347.6 1316.86 1349.79 1316.86C1351.25 1316.86 1352.58 1317.04 1353.86 1317.34V1316.09C1353.86 1314.8 1353.52 1313.86 1352.84 1313.21C1352.06 1312.53 1350.86 1312.19 1349.27 1312.19C1346.74 1312.19 1344.55 1313.05 1342.92 1314.08V1309.35C1344.59 1308.41 1347.04 1307.64 1350.04 1307.64C1352.79 1307.64 1355.24 1308.28 1356.83 1309.61C1358.24 1310.81 1359.06 1312.62 1359.06 1315.23V1323.34C1359.06 1324.51 1359.49 1325.32 1360.52 1325.32C1360.9 1325.32 1361.33 1325.19 1361.68 1325.02V1329.1C1361.03 1329.4 1360.13 1329.62 1359.1 1329.62C1357.39 1329.62 1355.75 1329.01 1354.76 1327.68H1354.68Z"
      fill="#15457D" />
    <path
      d="M1365.49 1308.11H1370.64V1310.38L1370.73 1310.43C1372.48 1308.84 1374.89 1307.64 1377.68 1307.64C1379.95 1307.64 1381.93 1308.41 1383.26 1309.87C1384.51 1311.2 1385.06 1312.96 1385.06 1316.09V1329.23H1379.87V1317C1379.87 1315.1 1379.61 1314.07 1379.01 1313.39C1378.37 1312.62 1377.42 1312.23 1376.22 1312.23C1374.16 1312.23 1372.01 1313.43 1370.68 1314.89V1329.23H1365.49V1308.11Z"
      fill="#15457D" />
    <path
      d="M1427.16 1326.82C1424.37 1328.54 1420.42 1329.7 1416.47 1329.7C1406.9 1329.7 1399.94 1323 1399.94 1313.77C1399.94 1304.63 1406.86 1297.68 1416.64 1297.68C1420.59 1297.68 1423.85 1298.79 1426.17 1300.17V1305.88C1423.64 1303.94 1420.21 1302.61 1416.69 1302.61C1409.9 1302.61 1405.39 1307.55 1405.39 1313.73C1405.39 1319.74 1409.65 1324.85 1416.73 1324.85C1418.62 1324.85 1420.42 1324.46 1421.8 1323.78V1317.81H1415.61V1313.17H1427.16V1326.82Z"
      fill="#15457D" />
    <path
      d="M1432.94 1308.11H1438.14V1329.23H1432.94V1308.11ZM1435.56 1297.89C1437.32 1297.89 1438.78 1299.35 1438.78 1301.11C1438.78 1302.87 1437.32 1304.33 1435.52 1304.33C1433.76 1304.33 1432.3 1302.87 1432.3 1301.11C1432.3 1299.35 1433.76 1297.89 1435.56 1297.89Z"
      fill="#15457D" />
    <path
      d="M1454.32 1325.15C1457.92 1325.15 1460.59 1322.32 1460.59 1318.67C1460.59 1315.02 1457.92 1312.19 1454.32 1312.19C1450.71 1312.19 1448.05 1315.02 1448.05 1318.67C1448.05 1322.32 1450.71 1325.15 1454.32 1325.15ZM1454.32 1307.64C1460.88 1307.64 1465.78 1312.44 1465.78 1318.67C1465.78 1324.89 1460.88 1329.7 1454.32 1329.7C1447.75 1329.7 1442.85 1324.89 1442.85 1318.67C1442.85 1312.44 1447.75 1307.64 1454.32 1307.64Z"
      fill="#15457D" />
    <path
      d="M1470.49 1308.11H1475.64V1311.07L1475.73 1311.11C1477.19 1309.05 1479.38 1307.89 1481.86 1307.89C1482.34 1307.89 1482.81 1307.94 1483.28 1308.06V1313.04C1482.77 1312.92 1482.25 1312.83 1481.57 1312.83C1479.12 1312.83 1477.14 1313.9 1475.69 1315.96V1329.23H1470.49V1308.11Z"
      fill="#15457D" />
    <path
      d="M1500.88 1313.26C1499.76 1312.62 1498.13 1312.14 1496.54 1312.14C1492.76 1312.14 1490.57 1315.02 1490.57 1318.45C1490.57 1322.1 1492.94 1324.81 1496.54 1324.81C1498.08 1324.81 1499.76 1324.29 1500.88 1323.48V1313.26ZM1488.13 1332.45C1490.19 1333.78 1492.59 1334.59 1494.91 1334.59C1498.52 1334.59 1500.88 1332.58 1500.88 1329.01V1327.68L1500.79 1327.6C1499.42 1328.58 1497.4 1329.14 1495.42 1329.14C1489.97 1329.14 1485.34 1324.98 1485.34 1318.71C1485.34 1312.62 1489.59 1307.64 1496.28 1307.64C1498.39 1307.64 1500.15 1308.11 1501.61 1308.84L1506.07 1308.06V1328.97C1506.07 1335.37 1501.69 1339.14 1495.08 1339.14C1492.42 1339.14 1489.93 1338.5 1488.13 1337.6V1332.45Z"
      fill="#15457D" />
    <path
      d="M1512.2 1308.11H1517.39V1329.23H1512.2V1308.11ZM1514.82 1297.89C1516.58 1297.89 1518.04 1299.35 1518.04 1301.11C1518.04 1302.87 1516.58 1304.33 1514.77 1304.33C1513.01 1304.33 1511.56 1302.87 1511.56 1301.11C1511.56 1299.35 1513.01 1297.89 1514.82 1297.89Z"
      fill="#15457D" />
    <path
      d="M1533.57 1325.15C1537.18 1325.15 1539.84 1322.32 1539.84 1318.67C1539.84 1315.02 1537.18 1312.19 1533.57 1312.19C1529.97 1312.19 1527.31 1315.02 1527.31 1318.67C1527.31 1322.32 1529.97 1325.15 1533.57 1325.15ZM1533.57 1307.64C1540.14 1307.64 1545.03 1312.44 1545.03 1318.67C1545.03 1324.89 1540.14 1329.7 1533.57 1329.7C1527 1329.7 1522.11 1324.89 1522.11 1318.67C1522.11 1312.44 1527 1307.64 1533.57 1307.64Z"
      fill="#15457D" />
    <path
      d="M1540.86 1232.07C1544.04 1232.07 1545.84 1231.93 1547.3 1231.08C1548.67 1230.26 1549.49 1228.93 1549.49 1227.04C1549.49 1225.03 1548.54 1223.65 1546.96 1222.88C1545.41 1222.1 1543.43 1222.06 1540.77 1222.06H1537.77V1232.07H1540.86ZM1532.32 1217.21H1540.99C1544.34 1217.21 1547.6 1217.42 1550.22 1218.84C1552.92 1220.3 1554.94 1222.96 1554.94 1226.87C1554.94 1230.52 1553.18 1233.22 1550.6 1234.77C1548.07 1236.27 1544.72 1236.62 1540.43 1236.62H1537.77V1248.29H1532.32V1217.21Z"
      fill="white" />
    <path
      d="M1569.74 1239.79C1568.79 1239.54 1567.51 1239.36 1566.48 1239.36C1564.33 1239.36 1562.23 1240.05 1562.23 1242.11C1562.23 1243.83 1563.73 1244.64 1565.57 1244.64C1567.16 1244.64 1568.71 1244.08 1569.74 1243.35V1239.79ZM1570.56 1246.75C1569.27 1247.78 1567.08 1248.77 1564.28 1248.77C1562.57 1248.77 1560.81 1248.38 1559.39 1247.35C1557.93 1246.27 1557.03 1244.6 1557.03 1242.5C1557.03 1240.18 1558.15 1238.46 1559.73 1237.39C1561.33 1236.31 1563.47 1235.93 1565.66 1235.93C1567.12 1235.93 1568.45 1236.1 1569.74 1236.4V1235.16C1569.74 1233.87 1569.39 1232.92 1568.71 1232.28C1567.94 1231.59 1566.73 1231.25 1565.15 1231.25C1562.61 1231.25 1560.42 1232.11 1558.79 1233.14V1228.42C1560.47 1227.47 1562.91 1226.7 1565.92 1226.7C1568.66 1226.7 1571.11 1227.34 1572.7 1228.67C1574.12 1229.88 1574.93 1231.68 1574.93 1234.3V1242.41C1574.93 1243.57 1575.36 1244.38 1576.39 1244.38C1576.78 1244.38 1577.21 1244.26 1577.55 1244.08V1248.16C1576.91 1248.46 1576.01 1248.68 1574.98 1248.68C1573.26 1248.68 1571.62 1248.08 1570.64 1246.75H1570.56Z"
      fill="white" />
    <path d="M1581.36 1215.49H1586.56V1248.29H1581.36V1215.49Z" fill="white" />
    <path
      d="M1603.89 1239.79C1602.95 1239.54 1601.66 1239.36 1600.63 1239.36C1598.49 1239.36 1596.38 1240.05 1596.38 1242.11C1596.38 1243.83 1597.88 1244.64 1599.73 1244.64C1601.32 1244.64 1602.87 1244.08 1603.89 1243.35V1239.79ZM1604.71 1246.75C1603.42 1247.78 1601.23 1248.77 1598.44 1248.77C1596.73 1248.77 1594.97 1248.38 1593.55 1247.35C1592.09 1246.27 1591.19 1244.6 1591.19 1242.5C1591.19 1240.18 1592.3 1238.46 1593.89 1237.39C1595.48 1236.31 1597.63 1235.93 1599.82 1235.93C1601.28 1235.93 1602.61 1236.1 1603.89 1236.4V1235.16C1603.89 1233.87 1603.55 1232.92 1602.87 1232.28C1602.09 1231.59 1600.89 1231.25 1599.3 1231.25C1596.77 1231.25 1594.58 1232.11 1592.95 1233.14V1228.42C1594.62 1227.47 1597.07 1226.7 1600.07 1226.7C1602.82 1226.7 1605.27 1227.34 1606.86 1228.67C1608.27 1229.88 1609.09 1231.68 1609.09 1234.3V1242.41C1609.09 1243.57 1609.52 1244.38 1610.55 1244.38C1610.93 1244.38 1611.36 1244.26 1611.71 1244.08V1248.16C1611.06 1248.46 1610.16 1248.68 1609.13 1248.68C1607.42 1248.68 1605.78 1248.08 1604.79 1246.75H1604.71Z"
      fill="white" />
    <path
      d="M1613.24 1248.29L1613.2 1248.2L1623.71 1231.68L1623.67 1231.59H1614.1V1227.17H1632.17L1632.22 1227.26L1621.7 1243.78L1621.74 1243.87H1631.96V1248.29H1613.24Z"
      fill="white" />
    <path
      d="M1633.71 1248.29L1633.67 1248.2L1644.18 1231.68L1644.14 1231.59H1634.57V1227.17H1652.64L1652.69 1227.26L1642.17 1243.78L1642.21 1243.87H1652.43V1248.29H1633.71Z"
      fill="white" />
    <path
      d="M1666.24 1244.21C1669.84 1244.21 1672.51 1241.38 1672.51 1237.73C1672.51 1234.08 1669.84 1231.25 1666.24 1231.25C1662.64 1231.25 1659.97 1234.08 1659.97 1237.73C1659.97 1241.38 1662.64 1244.21 1666.24 1244.21ZM1666.24 1226.7C1672.81 1226.7 1677.7 1231.51 1677.7 1237.73C1677.7 1243.96 1672.81 1248.77 1666.24 1248.77C1659.67 1248.77 1654.78 1243.96 1654.78 1237.73C1654.78 1231.51 1659.67 1226.7 1666.24 1226.7Z"
      fill="white" />
    <path d="M1682.42 1215.49H1687.61V1248.29H1682.42V1215.49Z" fill="white" />
    <path
      d="M1703.79 1244.21C1707.39 1244.21 1710.06 1241.38 1710.06 1237.73C1710.06 1234.08 1707.39 1231.25 1703.79 1231.25C1700.18 1231.25 1697.52 1234.08 1697.52 1237.73C1697.52 1241.38 1700.18 1244.21 1703.79 1244.21ZM1703.79 1226.7C1710.36 1226.7 1715.25 1231.51 1715.25 1237.73C1715.25 1243.96 1710.36 1248.77 1703.79 1248.77C1697.22 1248.77 1692.33 1243.96 1692.33 1237.73C1692.33 1231.51 1697.22 1226.7 1703.79 1226.7Z"
      fill="white" />
    <path d="M1169.59 1096.87L1174.85 1078.26L1240.24 1096.75L1234.98 1115.36L1169.59 1096.87Z"
      fill="white" />
    <path
      d="M1231.9 1051.77C1225.69 1052.89 1220.11 1053.8 1214.24 1054.67V1054.87C1219.42 1057.33 1224.68 1059.82 1229.81 1062.36L1249.34 1072L1241.11 1088.67L1180.16 1058.57L1188.19 1042.32L1218.23 1037.05C1224.43 1035.93 1230.01 1035.02 1235.89 1034.15L1235.89 1033.94C1230.71 1031.49 1225.45 1029 1220.32 1026.46L1200.79 1016.81L1209.02 1000.15L1269.96 1030.25L1261.94 1046.5L1231.9 1051.77Z"
      fill="white" />
    <path
      d="M1257.7 1011C1266.82 1007.56 1274.49 1001.46 1277.46 997.824C1279.96 994.773 1280.65 991.702 1277.97 989.502C1274.19 986.412 1270.74 990.624 1262.94 995.403C1253.64 1001.13 1245.2 1003.44 1236.7 996.486C1226.46 988.102 1226.48 974.895 1236.11 963.125C1240.57 957.677 1247.48 952.052 1253.99 949.136L1267.79 960.433C1259.06 963.839 1251.68 969.444 1248.65 973.148C1246.39 975.907 1245.72 978.511 1248.04 980.413C1251.46 983.208 1254.78 979.141 1262.27 974.594C1271.89 968.761 1280.66 966.354 1289.52 973.607C1300.13 982.289 1299.75 995.934 1289.76 1008.14C1285.36 1013.51 1278.6 1019.26 1271.72 1022.48L1257.7 1011Z"
      fill="white" />
    <path d="M1264.62 933.625L1278.94 920.634L1324.6 970.973L1310.28 983.964L1264.62 933.625Z"
      fill="white" />
    <path
      d="M1292.69 908.744L1329.43 883.981L1338.56 897.523L1317.86 911.481L1322.68 918.641L1340.19 906.838L1348.8 919.603L1331.28 931.407L1337.58 940.747L1359.22 926.162L1368.35 939.706L1330.67 965.096L1292.69 908.744Z"
      fill="white" />
    <path
      d="M1372.24 936.071L1348.48 872.398L1365.89 865.902L1391 882.981L1398.69 853.659L1415.93 847.228L1439.69 910.9L1421.57 917.658L1413.83 896.906C1411.96 891.891 1409.98 886.32 1408.43 881.887L1408.22 881.865C1407.09 886.896 1405.73 892.113 1404.42 897.207L1400.87 910.759L1389.21 902.885C1384.8 899.923 1380.44 896.841 1376.29 893.778L1376.15 893.933C1377.88 898.298 1380.03 903.804 1381.9 908.819L1389.65 929.574L1372.24 936.071Z"
      fill="white" />
    <path
      d="M1438.78 843.404L1482.77 838.055L1484.74 854.269L1459.95 857.283L1461 865.856L1481.96 863.305L1483.82 878.587L1462.85 881.138L1464.22 892.32L1490.12 889.17L1492.09 905.384L1446.99 910.871L1438.78 843.404Z"
      fill="white" />
    <path
      d="M1533.42 878.169C1530.25 877.843 1524.88 883.237 1523.15 888.153C1522.73 893.112 1522.29 899.203 1521.78 905.095C1527.89 905.346 1536.72 893.891 1537.51 886.14C1538.09 880.537 1535.76 878.411 1533.42 878.169ZM1518.45 898.995C1517.32 898.88 1513.9 911.929 1513.07 920.052C1512.24 928.084 1513.34 933.011 1514.37 933.118C1515.39 933.222 1516.39 930.871 1517.06 924.335C1518.69 908.552 1519.38 899.091 1518.45 898.995ZM1547.77 903.9C1544.56 907.534 1539.16 910.47 1533.18 909.854C1530.01 909.528 1525.87 908.442 1523.29 906.949C1522.72 906.985 1522.24 907.03 1521.68 906.971C1521.02 915.209 1520.35 922.69 1520.05 925.586C1519.27 933.149 1517.03 938.394 1514.23 938.104C1511.71 937.843 1509.55 932.243 1510.7 921.036C1512.59 902.733 1519.75 888.181 1520.12 884.539C1520.51 880.802 1521.36 874.378 1521.51 872.885C1521.87 869.428 1522.66 867.246 1524.34 867.418C1525.46 867.536 1526.49 868.585 1526.26 870.731C1526.05 872.879 1524.16 876.555 1524.02 877.863C1523.97 878.327 1523.78 881.139 1523.64 882.447C1526.59 877.655 1531.54 873.54 1535.46 873.942C1539.67 874.378 1542.61 878.833 1542 884.717C1541.18 892.746 1534.45 903.096 1526.68 906.071C1528.59 906.833 1531.26 907.486 1533.78 907.744C1541.53 908.543 1546.96 902.592 1549.35 897.645C1549.58 897.294 1549.94 896.481 1550.22 896.509C1550.5 896.537 1550.87 896.669 1550.75 897.791C1550.62 899.099 1549.48 901.909 1547.77 903.9Z"
      fill="white" />
    <path
      d="M1562.26 877.174C1559.58 876.637 1555.75 885.251 1553.92 891.967C1554.16 892.687 1554.73 893.185 1555.56 893.351C1558.96 894.034 1562.26 889.048 1563.52 882.79C1564.09 879.936 1563.54 877.433 1562.26 877.174ZM1571.76 904.651C1568.32 910.852 1562.55 913.333 1557.49 912.315C1551.51 911.114 1546.84 904.811 1549.06 893.77C1550.89 884.658 1557.34 873.507 1563.14 874.671C1565.63 875.172 1567.54 878.524 1566.26 884.872C1564.98 891.225 1559.92 896.909 1555.31 895.983C1554.48 895.817 1553.77 895.578 1553.14 895.356C1551.62 903.38 1554.9 908.538 1559.59 909.483C1563.18 910.203 1567.57 907.925 1571.18 902.331C1571.99 901.155 1572.49 900.584 1572.76 900.641C1573.04 900.694 1573.07 900.989 1572.93 901.726C1572.78 902.46 1572.35 903.622 1571.76 904.651Z"
      fill="white" />
    <path
      d="M1597.16 912.908C1595.55 915.076 1589.99 920.687 1586.39 919.629C1582.07 918.364 1579.54 911.951 1582.18 902.943C1583.92 896.998 1586.53 893.457 1587.37 892.239L1587.31 892.121C1586.64 892.414 1584.59 892.4 1582.88 891.899C1582.07 891.663 1581.37 891.359 1580.91 890.931C1577.23 898.165 1569.74 907.024 1567.86 908.43C1567.11 908.993 1566.64 909.246 1566.37 909.167C1566.1 909.088 1566.03 908.675 1566.13 908.315C1566.35 907.592 1567.08 906.439 1568.16 905.387C1570.8 902.738 1576.5 894.627 1579.26 888.884C1578.55 887.306 1578.66 885.58 1579.11 884.047C1579.96 881.164 1582.57 878.605 1584.28 879.105C1585.72 879.527 1585.69 881.282 1585.09 883.355C1584.43 885.605 1583.32 886.06 1583.03 887.053C1582.74 888.043 1582.97 888.895 1583.97 889.188C1585.77 889.714 1587.89 889.458 1589.11 888.639C1590.3 887.914 1591.01 886.848 1591.64 887.034C1592.27 887.219 1593.19 888.074 1592.72 889.697C1592.56 890.237 1587.94 895.634 1586.12 901.849C1584.09 908.785 1584.39 915.425 1587.46 916.325C1591.42 917.483 1596.66 910.61 1597.85 908.903C1598.47 908.107 1598.73 907.89 1598.91 907.944C1599.18 908.022 1599.03 908.861 1598.74 909.85C1598.45 910.84 1597.9 912.05 1597.16 912.908Z"
      fill="white" />
    <path
      d="M1625.54 910.155C1630.56 918.519 1637.93 924.968 1642.04 927.243C1645.49 929.153 1648.63 929.288 1650.31 926.25C1652.68 921.981 1647.92 919.343 1641.82 912.528C1634.52 904.403 1630.74 896.512 1636.07 886.908C1642.48 875.332 1655.48 872.986 1668.78 880.358C1674.94 883.772 1681.7 889.562 1685.74 895.449L1677.09 911.046C1672.18 903.065 1665.34 896.807 1661.16 894.487C1658.04 892.757 1655.36 892.561 1653.9 895.187C1651.77 899.046 1656.36 901.594 1662.18 908.144C1669.63 916.57 1673.57 924.762 1668.02 934.777C1661.37 946.761 1647.88 948.834 1634.09 941.19C1628.02 937.82 1621.15 932.196 1616.76 926L1625.54 910.155Z"
      fill="white" />
    <path
      d="M1697.78 965.583C1704.87 972.023 1715.59 971.247 1722.23 963.957C1728.85 956.665 1728.61 945.913 1721.53 939.47C1714.44 933.029 1703.71 933.805 1697.08 941.098C1690.45 948.39 1690.7 959.142 1697.78 965.583ZM1733.21 926.623C1748.35 940.389 1749.73 962.45 1736.53 976.964C1723.33 991.479 1701.24 992.196 1686.1 978.43C1670.96 964.666 1669.58 942.605 1682.78 928.091C1695.97 913.576 1718.07 912.859 1733.21 926.623Z"
      fill="white" />
    <path
      d="M1752.52 1017.08C1754.77 1011.19 1756.88 1005.94 1759.17 1000.47L1759 1000.36C1754.22 1003.52 1749.37 1006.73 1744.54 1009.81L1726.19 1021.53L1716.19 1005.86L1773.46 969.303L1783.21 984.571L1772.18 1012.99C1769.93 1018.88 1767.82 1024.12 1765.52 1029.6L1765.7 1029.7C1770.48 1026.55 1775.33 1023.33 1780.16 1020.25L1798.51 1008.54L1808.51 1024.2L1751.24 1060.76L1741.49 1045.5L1752.52 1017.08Z"
      fill="white" />
    <path
      d="M1808.73 1082.66C1804.21 1082.72 1800.06 1082.67 1795.37 1082.49L1788.49 1082.22L1792.48 1094.74L1797.97 1090.62C1801.87 1087.71 1805.16 1085.37 1808.78 1082.84L1808.73 1082.66ZM1825.61 1067.62L1831.39 1085.77L1775.01 1132.62L1768.62 1112.59L1780.4 1103.81L1773.33 1081.64L1758.58 1081.12L1752.51 1062.07L1825.61 1067.62Z"
      fill="white" />
    <path
      d="M1213.34 1351.77C1215.66 1355.54 1218 1358.29 1221.15 1359.82C1224.9 1361.65 1229.74 1361.54 1234.17 1358.83C1238.73 1356.03 1240.76 1351.74 1240.89 1347.77C1241.04 1343.92 1239.33 1340.36 1237.26 1336.98L1234.78 1332.94L1210.81 1347.64L1213.34 1351.77ZM1235.98 1326.52L1241.28 1335.16C1243.84 1339.33 1245.5 1343.51 1245.54 1347.85C1245.57 1354.04 1242.3 1359.52 1236.83 1362.87C1231.62 1366.07 1225.59 1366.66 1220.32 1364.4C1215.92 1362.49 1212.54 1358.83 1209.21 1353.41L1204.55 1345.81L1235.98 1326.52Z"
      fill="white" />
    <path
      d="M1240.96 1375L1249.1 1385.46L1253.28 1378.39C1254.9 1375.65 1256.64 1372.74 1258.32 1370.02L1258.26 1369.93C1255.2 1370.9 1251.99 1371.84 1248.72 1372.77L1240.96 1375ZM1261.31 1364.72L1264.15 1368.38L1244.4 1403.06L1241.21 1398.96L1246.79 1389.38L1236.59 1376.27L1225.91 1379.3L1222.87 1375.4L1261.31 1364.72Z"
      fill="white" />
    <path
      d="M1275.69 1382.31L1279.03 1385.82L1255.49 1408.25L1267.52 1420.87L1264.35 1423.9L1248.98 1407.78L1275.69 1382.31Z"
      fill="white" />
    <path
      d="M1294.25 1401.32L1297.89 1404.51L1276.44 1428.95L1289.54 1440.45L1286.65 1443.75L1269.91 1429.05L1294.25 1401.32Z"
      fill="white" />
    <path
      d="M1306.77 1440.83L1317.56 1448.54L1319.56 1440.58C1320.32 1437.49 1321.17 1434.21 1322.01 1431.11L1321.92 1431.05C1319.26 1432.84 1316.46 1434.66 1313.58 1436.49L1306.77 1440.83ZM1323.36 1425.19L1327.14 1427.89L1318.05 1466.77L1313.83 1463.74L1316.46 1452.97L1302.94 1443.29L1293.55 1449.24L1289.53 1446.36L1323.36 1425.19Z"
      fill="white" />
    <path
      d="M1347.18 1441.35L1351.79 1443.76L1349.18 1465.74C1348.79 1469.15 1348.37 1472.49 1347.87 1476.09L1347.96 1476.14C1350.6 1473.72 1353.19 1471.39 1355.86 1469.04L1372.35 1454.47L1376.74 1456.76L1347.12 1482.94L1342.74 1480.65L1347.18 1441.35Z"
      fill="white" />
    <path
      d="M1373.83 1479.54L1386.1 1484.51L1386.19 1476.31C1386.21 1473.13 1386.26 1469.74 1386.36 1466.53L1386.26 1466.49C1384.09 1468.86 1381.8 1471.28 1379.43 1473.73L1373.83 1479.54ZM1386.29 1460.46L1390.59 1462.21L1390.84 1502.1L1386.03 1500.15L1386.07 1489.06L1370.68 1482.83L1362.94 1490.79L1358.36 1488.93L1386.29 1460.46Z"
      fill="white" />
    <path
      d="M1407.51 1468.47L1412.16 1469.83L1403.02 1501.03L1419.75 1505.94L1418.52 1510.14L1397.14 1503.88L1407.51 1468.47Z"
      fill="white" />
    <path
      d="M1433.08 1475.67L1453.96 1479.83L1453.11 1484.13L1436.97 1480.91L1434.78 1491.91L1448.92 1494.72L1448.1 1498.87L1433.96 1496.05L1431.48 1508.49L1448.07 1511.79L1447.21 1516.09L1425.88 1511.84L1433.08 1475.67Z"
      fill="white" />
    <path
      d="M1455.82 1517.53L1459.13 1480.78L1463.7 1481.19L1477.24 1502.98C1479.13 1505.97 1480.99 1509.05 1482.82 1512.14L1482.92 1512.09C1483.16 1508.89 1483.44 1505.18 1483.76 1501.63L1485.43 1483.15L1490.1 1483.57L1486.79 1520.32L1482.22 1519.91L1468.68 1498.12C1466.8 1495.14 1464.92 1492.05 1463.1 1488.97L1463 1489.01C1462.76 1492.21 1462.48 1495.92 1462.16 1499.48L1460.49 1517.95L1455.82 1517.53Z"
      fill="white" />
    <path
      d="M1505.96 1487.75L1493.58 1488.02L1493.49 1483.64L1523.09 1482.98L1523.18 1487.36L1510.8 1487.64L1511.52 1520.14L1506.68 1520.25L1505.96 1487.75Z"
      fill="white" />
    <path d="M1527.19 1482.31L1532.01 1481.87L1535.42 1518.61L1530.6 1519.06L1527.19 1482.31Z"
      fill="white" />
    <path
      d="M1545.42 1517.81L1539.03 1481.47L1543.55 1480.68L1562.3 1498.18C1564.9 1500.57 1567.51 1503.06 1570.07 1505.56L1570.16 1505.49C1569.55 1502.34 1568.86 1498.69 1568.24 1495.17L1565.03 1476.9L1569.65 1476.09L1576.04 1512.43L1571.52 1513.22L1552.76 1495.72C1550.17 1493.33 1547.56 1490.84 1545 1488.34L1544.91 1488.41C1545.52 1491.56 1546.21 1495.22 1546.83 1498.73L1550.04 1517L1545.42 1517.81Z"
      fill="white" />
    <path
      d="M1589.05 1493.91L1601.74 1490.11L1596.67 1483.65C1594.7 1481.16 1592.62 1478.49 1590.68 1475.93L1590.59 1475.96C1590.38 1479.16 1590.1 1482.49 1589.78 1485.88L1589.05 1493.91ZM1586.83 1471.24L1591.27 1469.9L1616.45 1500.86L1611.47 1502.35L1604.56 1493.68L1588.66 1498.45L1587.61 1509.5L1582.88 1510.92L1586.83 1471.24Z"
      fill="white" />
    <path
      d="M1630.57 1486.91C1634.83 1487.88 1639.33 1487.05 1642.29 1485.69C1646.28 1483.87 1648.28 1480.77 1646.6 1477.11C1644.63 1472.8 1640.35 1473.86 1635.38 1474.62C1630.03 1475.44 1624.56 1475.6 1621.76 1469.48C1619.05 1463.55 1621.79 1458.15 1628.32 1455.16C1631.47 1453.72 1635.63 1452.77 1639.1 1453.25L1641.22 1457.88C1637.19 1457.15 1632.94 1457.92 1630.07 1459.23C1626.32 1460.95 1624.42 1463.78 1625.98 1467.21C1627.89 1471.38 1632.11 1470.29 1636.71 1469.59C1642.21 1468.75 1647.92 1468.49 1650.85 1474.88C1653.65 1481 1650.81 1486.67 1644.09 1489.74C1640.85 1491.23 1636.5 1492.15 1632.78 1491.73L1630.57 1486.91Z"
      fill="white" />
    <path d="M1644.19 1447.97L1648.44 1445.67L1665.97 1478.12L1661.71 1480.42L1644.19 1447.97Z"
      fill="white" />
    <path
      d="M1674.92 1473.43L1654.76 1442.53L1658.6 1440.02L1682.73 1448.74C1686.06 1449.92 1689.43 1451.18 1692.77 1452.48L1692.83 1452.38C1691.03 1449.71 1688.96 1446.63 1687 1443.64L1676.87 1428.1L1680.8 1425.54L1700.96 1456.44L1697.11 1458.95L1672.99 1450.23C1669.67 1449.05 1666.28 1447.78 1662.95 1446.5L1662.89 1446.59C1664.69 1449.25 1666.76 1452.34 1668.71 1455.33L1678.84 1470.87L1674.92 1473.43Z"
      fill="white" />
    <path
      d="M1714.29 1440.32C1717.69 1437.47 1720.06 1434.74 1721.11 1431.4C1722.36 1427.42 1721.54 1422.64 1718.2 1418.66C1714.75 1414.56 1710.21 1413.19 1706.26 1413.64C1702.42 1414.07 1699.15 1416.28 1696.11 1418.84L1692.48 1421.9L1710.58 1443.44L1714.29 1440.32ZM1685.95 1421.65L1693.72 1415.13C1697.47 1411.98 1701.35 1409.71 1705.65 1409.03C1711.77 1408.08 1717.68 1410.51 1721.81 1415.43C1725.74 1420.11 1727.22 1425.99 1725.76 1431.55C1724.53 1436.18 1721.4 1440.07 1716.53 1444.17L1709.7 1449.91L1685.95 1421.65Z"
      fill="white" />
    <path
      d="M1733.15 1409.58L1742.28 1399.98L1734.67 1396.9C1731.72 1395.71 1728.59 1394.42 1725.64 1393.16L1725.57 1393.24C1726.98 1396.12 1728.38 1399.15 1729.8 1402.25L1733.15 1409.58ZM1719.96 1391L1723.16 1387.64L1760.38 1402.01L1756.8 1405.78L1746.5 1401.68L1735.06 1413.71L1739.64 1423.83L1736.23 1427.41L1719.96 1391Z"
      fill="white" />
    <path
      d="M1744.47 1361.31C1746.82 1358.24 1749.78 1355.95 1752.85 1354.64L1757.05 1357.86C1753.76 1358.81 1750.38 1360.96 1748 1364.08C1742.89 1370.75 1744.31 1379.28 1750.82 1384.27C1757.33 1389.26 1765.94 1388.41 1771.3 1381.41C1773.77 1378.17 1774.88 1374.47 1774.78 1370.74L1779.03 1373.99C1778.73 1377.48 1777.05 1381.26 1774.7 1384.34C1767.88 1393.23 1756.53 1394.74 1747.95 1388.17C1739.63 1381.79 1737.44 1370.49 1744.47 1361.31Z"
      fill="white" />
    <path
      d="M1791.19 1351.44C1795.29 1344.51 1792.75 1336.2 1785.77 1332.07C1778.8 1327.95 1770.29 1329.72 1766.19 1336.65C1762.09 1343.58 1764.63 1351.9 1771.61 1356.02C1778.58 1360.15 1787.09 1358.37 1791.19 1351.44ZM1762.33 1334.37C1767.78 1325.16 1779.03 1322.46 1788.24 1327.91C1797.45 1333.36 1800.5 1344.52 1795.05 1353.73C1789.6 1362.94 1778.36 1365.64 1769.14 1360.19C1759.93 1354.74 1756.88 1343.58 1762.33 1334.37Z"
      fill="white" />
  </g>
  <defs>
    <pattern id="pattern0" patternContentUnits="objectBoundingBox" width="1" height="1">
      <use xlink:href="#image0_4_621" transform="scale(0.00125)" />
    </pattern>
    <radialGradient id="paint0_radial_4_621" cx="0" cy="0" r="1" gradientUnits="userSpaceOnUse"
      gradientTransform="translate(1490.5 2740) rotate(135.548) scale(1220.17 1220.17)">
      <stop offset="0.401042" stop-color="#006896" />
      <stop offset="1" stop-color="#1C3783" />
    </radialGradient>
    <clipPath id="clip0_4_621">
      <rect width="2048" height="2048" fill="white" />
    </clipPath>
    <image id="image0_4_621" width="800" height="800" xlink:href="[[FOTO_PROFILO]]" />
  </defs>
</svg>